<?xml version="1.0" encoding="us-ascii" standalone="no"?><svg xmlns="http://www.w3.org/2000/svg" xmlns:xlink="http://www.w3.org/1999/xlink" contentStyleType="text/css" height="408px" preserveAspectRatio="none" style="width:527px;height:408px;" version="1.1" viewBox="0 0 527 408" width="527px" zoomAndPan="magnify"><defs/><g><rect fill="#E0E0E0" height="26.8047" style="stroke:#FF8800;stroke-width:1.0;" width="10" x="325.5" y="102.4141"/><rect fill="#E0E0E0" height="26.8047" style="stroke:#FF8800;stroke-width:1.0;" width="10" x="325.5" y="156.0234"/><rect fill="#E0E0E0" height="26.8047" style="stroke:#FF8800;stroke-width:1.0;" width="10" x="325.5" y="250.4375"/><rect fill="#E0E0E0" height="26.8047" style="stroke:#FF8800;stroke-width:1.0;" width="10" x="325.5" y="304.0469"/><line style="stroke:#FF8800;stroke-width:0.5;stroke-dasharray:5.0,5.0;" x1="66" x2="66" y1="32.8047" y2="42.8047"/><line style="stroke:#FF8800;stroke-width:1.0;stroke-dasharray:1.0,4.0;" x1="66" x2="66" y1="42.8047" y2="83.6094"/><line style="stroke:#FF8800;stroke-width:0.5;stroke-dasharray:5.0,5.0;" x1="66" x2="66" y1="83.6094" y2="190.8281"/><line style="stroke:#FF8800;stroke-width:1.0;stroke-dasharray:1.0,4.0;" x1="66" x2="66" y1="190.8281" y2="231.6328"/><line style="stroke:#FF8800;stroke-width:0.5;stroke-dasharray:5.0,5.0;" x1="66" x2="66" y1="231.6328" y2="338.8516"/><line style="stroke:#FF8800;stroke-width:1.0;stroke-dasharray:1.0,4.0;" x1="66" x2="66" y1="338.8516" y2="366.8516"/><line style="stroke:#FF8800;stroke-width:0.5;stroke-dasharray:5.0,5.0;" x1="66" x2="66" y1="366.8516" y2="376.8516"/><line style="stroke:#FF8800;stroke-width:0.5;stroke-dasharray:5.0,5.0;" x1="330" x2="330" y1="32.8047" y2="42.8047"/><line style="stroke:#FF8800;stroke-width:1.0;stroke-dasharray:1.0,4.0;" x1="330" x2="330" y1="42.8047" y2="83.6094"/><line style="stroke:#FF8800;stroke-width:0.5;stroke-dasharray:5.0,5.0;" x1="330" x2="330" y1="83.6094" y2="190.8281"/><line style="stroke:#FF8800;stroke-width:1.0;stroke-dasharray:1.0,4.0;" x1="330" x2="330" y1="190.8281" y2="231.6328"/><line style="stroke:#FF8800;stroke-width:0.5;stroke-dasharray:5.0,5.0;" x1="330" x2="330" y1="231.6328" y2="338.8516"/><line style="stroke:#FF8800;stroke-width:1.0;stroke-dasharray:1.0,4.0;" x1="330" x2="330" y1="338.8516" y2="366.8516"/><line style="stroke:#FF8800;stroke-width:0.5;stroke-dasharray:5.0,5.0;" x1="330" x2="330" y1="366.8516" y2="376.8516"/><line style="stroke:#FF8800;stroke-width:0.5;stroke-dasharray:5.0,5.0;" x1="486" x2="486" y1="32.8047" y2="42.8047"/><line style="stroke:#FF8800;stroke-width:1.0;stroke-dasharray:1.0,4.0;" x1="486" x2="486" y1="42.8047" y2="83.6094"/><line style="stroke:#FF8800;stroke-width:0.5;stroke-dasharray:5.0,5.0;" x1="486" x2="486" y1="83.6094" y2="190.8281"/><line style="stroke:#FF8800;stroke-width:1.0;stroke-dasharray:1.0,4.0;" x1="486" x2="486" y1="190.8281" y2="231.6328"/><line style="stroke:#FF8800;stroke-width:0.5;stroke-dasharray:5.0,5.0;" x1="486" x2="486" y1="231.6328" y2="338.8516"/><line style="stroke:#FF8800;stroke-width:1.0;stroke-dasharray:1.0,4.0;" x1="486" x2="486" y1="338.8516" y2="366.8516"/><line style="stroke:#FF8800;stroke-width:0.5;stroke-dasharray:5.0,5.0;" x1="486" x2="486" y1="366.8516" y2="376.8516"/><rect fill="#CCCCCC" height="26.8047" rx="2.5" ry="2.5" style="stroke:#AAAAAA;stroke-width:0.5;" width="123" x="5" y="5"/><text fill="#000000" font-family="Verdana" font-size="11" lengthAdjust="spacing" textLength="109" x="12" y="22.2104">Custom Application</text><rect fill="#CCCCCC" height="26.8047" rx="2.5" ry="2.5" style="stroke:#AAAAAA;stroke-width:0.5;" width="123" x="5" y="375.8516"/><text fill="#000000" font-family="Verdana" font-size="11" lengthAdjust="spacing" textLength="109" x="12" y="393.062">Custom Application</text><rect fill="#CCCCCC" height="26.8047" rx="2.5" ry="2.5" style="stroke:#AAAAAA;stroke-width:0.5;" width="75" x="293" y="5"/><text fill="#000000" font-family="Verdana" font-size="11" lengthAdjust="spacing" textLength="61" x="300" y="22.2104">File Server</text><rect fill="#CCCCCC" height="26.8047" rx="2.5" ry="2.5" style="stroke:#AAAAAA;stroke-width:0.5;" width="75" x="293" y="375.8516"/><text fill="#000000" font-family="Verdana" font-size="11" lengthAdjust="spacing" textLength="61" x="300" y="393.062">File Server</text><rect fill="#CCCCCC" height="26.8047" rx="2.5" ry="2.5" style="stroke:#AAAAAA;stroke-width:0.5;" width="69" x="452" y="5"/><text fill="#000000" font-family="Verdana" font-size="11" lengthAdjust="spacing" textLength="55" x="459" y="22.2104">File Client</text><rect fill="#CCCCCC" height="26.8047" rx="2.5" ry="2.5" style="stroke:#AAAAAA;stroke-width:0.5;" width="69" x="452" y="375.8516"/><text fill="#000000" font-family="Verdana" font-size="11" lengthAdjust="spacing" textLength="55" x="459" y="393.062">File Client</text><rect fill="#E0E0E0" height="26.8047" style="stroke:#FF8800;stroke-width:1.0;" width="10" x="325.5" y="102.4141"/><rect fill="#E0E0E0" height="26.8047" style="stroke:#FF8800;stroke-width:1.0;" width="10" x="325.5" y="156.0234"/><rect fill="#E0E0E0" height="26.8047" style="stroke:#FF8800;stroke-width:1.0;" width="10" x="325.5" y="250.4375"/><rect fill="#E0E0E0" height="26.8047" style="stroke:#FF8800;stroke-width:1.0;" width="10" x="325.5" y="304.0469"/><text fill="#000000" font-family="sans-serif" font-size="11" lengthAdjust="spacing" textLength="4" x="226.5" y="67.0151">&#160;</text><text fill="#000000" font-family="sans-serif" font-size="11" font-weight="bold" lengthAdjust="spacing" textLength="92" x="230.5" y="67.0151">Download File</text><polygon fill="#000000" points="313.5,98.4141,323.5,102.4141,313.5,106.4141,317.5,102.4141" style="stroke:#000000;stroke-width:1.0;"/><line style="stroke:#000000;stroke-width:1.0;" x1="66.5" x2="319.5" y1="102.4141" y2="102.4141"/><text fill="#333333" font-family="Verdana" font-size="11" font-weight="bold" lengthAdjust="spacing" textLength="20" x="73.5" y="97.8198">1.1</text><text fill="#333333" font-family="Verdana" font-size="11" lengthAdjust="spacing" textLength="216" x="97.5" y="97.8198">FileService.uploadFile(userId, newFile)</text><polygon fill="#000000" points="77.5,125.2188,67.5,129.2188,77.5,133.2188,73.5,129.2188" style="stroke:#000000;stroke-width:1.0;"/><line style="stroke:#000000;stroke-width:1.0;stroke-dasharray:2.0,2.0;" x1="71.5" x2="329.5" y1="129.2188" y2="129.2188"/><text fill="#333333" font-family="Verdana" font-size="11" font-weight="bold" lengthAdjust="spacing" textLength="20" x="83.5" y="124.6245">1.2</text><text fill="#333333" font-family="Verdana" font-size="11" lengthAdjust="spacing" textLength="43" x="107.5" y="124.6245">&lt;path&gt;</text><polygon fill="#000000" points="346.5,152.0234,336.5,156.0234,346.5,160.0234,342.5,156.0234" style="stroke:#000000;stroke-width:1.0;"/><line style="stroke:#000000;stroke-width:1.0;" x1="340.5" x2="485.5" y1="156.0234" y2="156.0234"/><text fill="#333333" font-family="Verdana" font-size="11" font-weight="bold" lengthAdjust="spacing" textLength="20" x="352.5" y="151.4292">1.3</text><text fill="#333333" font-family="Verdana" font-size="11" lengthAdjust="spacing" textLength="108" x="376.5" y="151.4292">HTTP download file</text><polygon fill="#000000" points="474.5,178.8281,484.5,182.8281,474.5,186.8281,478.5,182.8281" style="stroke:#000000;stroke-width:1.0;"/><line style="stroke:#000000;stroke-width:1.0;stroke-dasharray:2.0,2.0;" x1="330.5" x2="480.5" y1="182.8281" y2="182.8281"/><text fill="#333333" font-family="Verdana" font-size="11" font-weight="bold" lengthAdjust="spacing" textLength="20" x="337.5" y="178.2339">1.4</text><text fill="#333333" font-family="Verdana" font-size="11" lengthAdjust="spacing" textLength="35" x="361.5" y="178.2339">&lt;file&gt;</text><text fill="#000000" font-family="sans-serif" font-size="11" lengthAdjust="spacing" textLength="4" x="236" y="215.0386">&#160;</text><text fill="#000000" font-family="sans-serif" font-size="11" font-weight="bold" lengthAdjust="spacing" textLength="73" x="240" y="215.0386">Upload File</text><polygon fill="#000000" points="346.5,246.4375,336.5,250.4375,346.5,254.4375,342.5,250.4375" style="stroke:#000000;stroke-width:1.0;"/><line style="stroke:#000000;stroke-width:1.0;" x1="340.5" x2="485.5" y1="250.4375" y2="250.4375"/><text fill="#333333" font-family="Verdana" font-size="11" font-weight="bold" lengthAdjust="spacing" textLength="20" x="352.5" y="245.8433">2.1</text><text fill="#333333" font-family="Verdana" font-size="11" lengthAdjust="spacing" textLength="81" x="376.5" y="245.8433">tus upload file</text><polygon fill="#000000" points="474.5,273.2422,484.5,277.2422,474.5,281.2422,478.5,277.2422" style="stroke:#000000;stroke-width:1.0;"/><line style="stroke:#000000;stroke-width:1.0;stroke-dasharray:2.0,2.0;" x1="330.5" x2="480.5" y1="277.2422" y2="277.2422"/><text fill="#333333" font-family="Verdana" font-size="11" font-weight="bold" lengthAdjust="spacing" textLength="20" x="337.5" y="272.6479">2.2</text><text fill="#333333" font-family="Verdana" font-size="11" lengthAdjust="spacing" textLength="4" x="361.5" y="272.6479">&#160;</text><polygon fill="#000000" points="313.5,300.0469,323.5,304.0469,313.5,308.0469,317.5,304.0469" style="stroke:#000000;stroke-width:1.0;"/><line style="stroke:#000000;stroke-width:1.0;" x1="66.5" x2="319.5" y1="304.0469" y2="304.0469"/><text fill="#333333" font-family="Verdana" font-size="11" font-weight="bold" lengthAdjust="spacing" textLength="20" x="73.5" y="299.4526">2.3</text><text fill="#333333" font-family="Verdana" font-size="11" lengthAdjust="spacing" textLength="171" x="97.5" y="299.4526">FileService.downloadFile(path)</text><polygon fill="#000000" points="77.5,326.8516,67.5,330.8516,77.5,334.8516,73.5,330.8516" style="stroke:#000000;stroke-width:1.0;"/><line style="stroke:#000000;stroke-width:1.0;stroke-dasharray:2.0,2.0;" x1="71.5" x2="329.5" y1="330.8516" y2="330.8516"/><text fill="#333333" font-family="Verdana" font-size="11" font-weight="bold" lengthAdjust="spacing" textLength="20" x="83.5" y="326.2573">2.4</text><text fill="#333333" font-family="Verdana" font-size="11" lengthAdjust="spacing" textLength="37" x="107.5" y="326.2573">&lt;File&gt;</text><!--SRC=[VL3DJW8n4BxtAKOkQ2ARu94G4aI97anCn0SexUnkGxTjsYdhupjT90GLZkttFpVKOeSGKUk8AKsiQLhoKRe6XKWxuuACieEjLBic-kpqobiVWPYH6497OWmd7di4xnA-iPTiy16jxvSn-fuLcHt7G8OimlENQai6h8t590IhoIWJf2COhN8Yty4o16kK9EFT26G26S8vhsZX0-CUuq2eqp_uoXekUS2L45LLmNoxUFAzirxg8H_uKmYPoRlSRJ72j9eAJeF9WZrd0wV468LL3aLMVcvpmlYgxy5XNzvtGYeoUqbOYeWwmOJrR3E3UP3KBeJ6SuOw1hniDk-WZvLgDllNgrPiLT0_LZ-hFiFbJG-ywPH8ES5XohMutp4NRd9iFbobJBrsYlM5_jy0]--></g></svg>