<?xml version="1.0" encoding="us-ascii" standalone="no"?><svg xmlns="http://www.w3.org/2000/svg" xmlns:xlink="http://www.w3.org/1999/xlink" contentStyleType="text/css" height="734px" preserveAspectRatio="none" style="width:611px;height:734px;" version="1.1" viewBox="0 0 611 734" width="611px" zoomAndPan="magnify"><defs/><g><text fill="#000000" font-family="sans-serif" font-size="14" font-weight="bold" lengthAdjust="spacing" textLength="222" x="193.5" y="27.9951">Exchange Files via FileShare</text><rect fill="#E0E0E0" height="26.8047" style="stroke:#FF8800;stroke-width:1.0;" width="10" x="164.5" y="170.7109"/><rect fill="#E0E0E0" height="26.8047" style="stroke:#FF8800;stroke-width:1.0;" width="10" x="164.5" y="277.9297"/><rect fill="#E0E0E0" height="26.8047" style="stroke:#FF8800;stroke-width:1.0;" width="10" x="164.5" y="533.1719"/><rect fill="#E0E0E0" height="26.8047" style="stroke:#FF8800;stroke-width:1.0;" width="10" x="164.5" y="586.7813"/><rect fill="#E0E0E0" height="26.8047" style="stroke:#FF8800;stroke-width:1.0;" width="10" x="409.5" y="224.3203"/><rect fill="#E0E0E0" height="26.8047" style="stroke:#FF8800;stroke-width:1.0;" width="10" x="409.5" y="331.5391"/><rect fill="#E0E0E0" height="26.8047" style="stroke:#FF8800;stroke-width:1.0;" width="10" x="409.5" y="425.9531"/><rect fill="#E0E0E0" height="26.8047" style="stroke:#FF8800;stroke-width:1.0;" width="10" x="409.5" y="479.5625"/><line style="stroke:#FF8800;stroke-width:0.5;stroke-dasharray:5.0,5.0;" x1="66" x2="66" y1="101.1016" y2="111.1016"/><line style="stroke:#FF8800;stroke-width:1.0;stroke-dasharray:1.0,4.0;" x1="66" x2="66" y1="111.1016" y2="151.9063"/><line style="stroke:#FF8800;stroke-width:0.5;stroke-dasharray:5.0,5.0;" x1="66" x2="66" y1="151.9063" y2="366.3438"/><line style="stroke:#FF8800;stroke-width:1.0;stroke-dasharray:1.0,4.0;" x1="66" x2="66" y1="366.3438" y2="407.1484"/><line style="stroke:#FF8800;stroke-width:0.5;stroke-dasharray:5.0,5.0;" x1="66" x2="66" y1="407.1484" y2="621.5859"/><line style="stroke:#FF8800;stroke-width:1.0;stroke-dasharray:1.0,4.0;" x1="66" x2="66" y1="621.5859" y2="649.5859"/><line style="stroke:#FF8800;stroke-width:0.5;stroke-dasharray:5.0,5.0;" x1="66" x2="66" y1="649.5859" y2="659.5859"/><line style="stroke:#FF8800;stroke-width:0.5;stroke-dasharray:5.0,5.0;" x1="169" x2="169" y1="101.1016" y2="111.1016"/><line style="stroke:#FF8800;stroke-width:1.0;stroke-dasharray:1.0,4.0;" x1="169" x2="169" y1="111.1016" y2="151.9063"/><line style="stroke:#FF8800;stroke-width:0.5;stroke-dasharray:5.0,5.0;" x1="169" x2="169" y1="151.9063" y2="366.3438"/><line style="stroke:#FF8800;stroke-width:1.0;stroke-dasharray:1.0,4.0;" x1="169" x2="169" y1="366.3438" y2="407.1484"/><line style="stroke:#FF8800;stroke-width:0.5;stroke-dasharray:5.0,5.0;" x1="169" x2="169" y1="407.1484" y2="621.5859"/><line style="stroke:#FF8800;stroke-width:1.0;stroke-dasharray:1.0,4.0;" x1="169" x2="169" y1="621.5859" y2="649.5859"/><line style="stroke:#FF8800;stroke-width:0.5;stroke-dasharray:5.0,5.0;" x1="169" x2="169" y1="649.5859" y2="659.5859"/><line style="stroke:#FF8800;stroke-width:0.5;stroke-dasharray:5.0,5.0;" x1="414" x2="414" y1="101.1016" y2="111.1016"/><line style="stroke:#FF8800;stroke-width:1.0;stroke-dasharray:1.0,4.0;" x1="414" x2="414" y1="111.1016" y2="151.9063"/><line style="stroke:#FF8800;stroke-width:0.5;stroke-dasharray:5.0,5.0;" x1="414" x2="414" y1="151.9063" y2="366.3438"/><line style="stroke:#FF8800;stroke-width:1.0;stroke-dasharray:1.0,4.0;" x1="414" x2="414" y1="366.3438" y2="407.1484"/><line style="stroke:#FF8800;stroke-width:0.5;stroke-dasharray:5.0,5.0;" x1="414" x2="414" y1="407.1484" y2="621.5859"/><line style="stroke:#FF8800;stroke-width:1.0;stroke-dasharray:1.0,4.0;" x1="414" x2="414" y1="621.5859" y2="649.5859"/><line style="stroke:#FF8800;stroke-width:0.5;stroke-dasharray:5.0,5.0;" x1="414" x2="414" y1="649.5859" y2="659.5859"/><line style="stroke:#FF8800;stroke-width:0.5;stroke-dasharray:5.0,5.0;" x1="570" x2="570" y1="101.1016" y2="111.1016"/><line style="stroke:#FF8800;stroke-width:1.0;stroke-dasharray:1.0,4.0;" x1="570" x2="570" y1="111.1016" y2="151.9063"/><line style="stroke:#FF8800;stroke-width:0.5;stroke-dasharray:5.0,5.0;" x1="570" x2="570" y1="151.9063" y2="366.3438"/><line style="stroke:#FF8800;stroke-width:1.0;stroke-dasharray:1.0,4.0;" x1="570" x2="570" y1="366.3438" y2="407.1484"/><line style="stroke:#FF8800;stroke-width:0.5;stroke-dasharray:5.0,5.0;" x1="570" x2="570" y1="407.1484" y2="621.5859"/><line style="stroke:#FF8800;stroke-width:1.0;stroke-dasharray:1.0,4.0;" x1="570" x2="570" y1="621.5859" y2="649.5859"/><line style="stroke:#FF8800;stroke-width:0.5;stroke-dasharray:5.0,5.0;" x1="570" x2="570" y1="649.5859" y2="659.5859"/><rect fill="#CCCCCC" height="26.8047" rx="2.5" ry="2.5" style="stroke:#AAAAAA;stroke-width:0.5;" width="123" x="5" y="73.2969"/><text fill="#000000" font-family="Verdana" font-size="11" lengthAdjust="spacing" textLength="109" x="12" y="90.5073">Custom Application</text><rect fill="#CCCCCC" height="26.8047" rx="2.5" ry="2.5" style="stroke:#AAAAAA;stroke-width:0.5;" width="123" x="5" y="658.5859"/><text fill="#000000" font-family="Verdana" font-size="11" lengthAdjust="spacing" textLength="109" x="12" y="675.7964">Custom Application</text><text fill="#000000" font-family="Verdana" font-size="11" lengthAdjust="spacing" textLength="57" x="138" y="98.5073">File Share</text><path d="M151.5,52.2969 C151.5,42.2969 169.5,42.2969 169.5,42.2969 C169.5,42.2969 187.5,42.2969 187.5,52.2969 L187.5,78.2969 C187.5,88.2969 169.5,88.2969 169.5,88.2969 C169.5,88.2969 151.5,88.2969 151.5,78.2969 L151.5,52.2969 " fill="#CCCCCC" style="stroke:#AAAAAA;stroke-width:1.5;"/><path d="M151.5,52.2969 C151.5,62.2969 169.5,62.2969 169.5,62.2969 C169.5,62.2969 187.5,62.2969 187.5,52.2969 " fill="none" style="stroke:#AAAAAA;stroke-width:1.5;"/><text fill="#000000" font-family="Verdana" font-size="11" lengthAdjust="spacing" textLength="57" x="138" y="668.7964">File Share</text><path d="M151.5,681.3906 C151.5,671.3906 169.5,671.3906 169.5,671.3906 C169.5,671.3906 187.5,671.3906 187.5,681.3906 L187.5,707.3906 C187.5,717.3906 169.5,717.3906 169.5,717.3906 C169.5,717.3906 151.5,717.3906 151.5,707.3906 L151.5,681.3906 " fill="#CCCCCC" style="stroke:#AAAAAA;stroke-width:1.5;"/><path d="M151.5,681.3906 C151.5,691.3906 169.5,691.3906 169.5,691.3906 C169.5,691.3906 187.5,691.3906 187.5,681.3906 " fill="none" style="stroke:#AAAAAA;stroke-width:1.5;"/><rect fill="#CCCCCC" height="26.8047" rx="2.5" ry="2.5" style="stroke:#AAAAAA;stroke-width:0.5;" width="75" x="377" y="73.2969"/><text fill="#000000" font-family="Verdana" font-size="11" lengthAdjust="spacing" textLength="61" x="384" y="90.5073">File Server</text><rect fill="#CCCCCC" height="26.8047" rx="2.5" ry="2.5" style="stroke:#AAAAAA;stroke-width:0.5;" width="75" x="377" y="658.5859"/><text fill="#000000" font-family="Verdana" font-size="11" lengthAdjust="spacing" textLength="61" x="384" y="675.7964">File Server</text><rect fill="#CCCCCC" height="26.8047" rx="2.5" ry="2.5" style="stroke:#AAAAAA;stroke-width:0.5;" width="69" x="536" y="73.2969"/><text fill="#000000" font-family="Verdana" font-size="11" lengthAdjust="spacing" textLength="55" x="543" y="90.5073">File Client</text><rect fill="#CCCCCC" height="26.8047" rx="2.5" ry="2.5" style="stroke:#AAAAAA;stroke-width:0.5;" width="69" x="536" y="658.5859"/><text fill="#000000" font-family="Verdana" font-size="11" lengthAdjust="spacing" textLength="55" x="543" y="675.7964">File Client</text><rect fill="#E0E0E0" height="26.8047" style="stroke:#FF8800;stroke-width:1.0;" width="10" x="164.5" y="170.7109"/><rect fill="#E0E0E0" height="26.8047" style="stroke:#FF8800;stroke-width:1.0;" width="10" x="164.5" y="277.9297"/><rect fill="#E0E0E0" height="26.8047" style="stroke:#FF8800;stroke-width:1.0;" width="10" x="164.5" y="533.1719"/><rect fill="#E0E0E0" height="26.8047" style="stroke:#FF8800;stroke-width:1.0;" width="10" x="164.5" y="586.7813"/><rect fill="#E0E0E0" height="26.8047" style="stroke:#FF8800;stroke-width:1.0;" width="10" x="409.5" y="224.3203"/><rect fill="#E0E0E0" height="26.8047" style="stroke:#FF8800;stroke-width:1.0;" width="10" x="409.5" y="331.5391"/><rect fill="#E0E0E0" height="26.8047" style="stroke:#FF8800;stroke-width:1.0;" width="10" x="409.5" y="425.9531"/><rect fill="#E0E0E0" height="26.8047" style="stroke:#FF8800;stroke-width:1.0;" width="10" x="409.5" y="479.5625"/><text fill="#000000" font-family="sans-serif" font-size="11" lengthAdjust="spacing" textLength="4" x="268.5" y="135.312">&#160;</text><text fill="#000000" font-family="sans-serif" font-size="11" font-weight="bold" lengthAdjust="spacing" textLength="92" x="272.5" y="135.312">Download File</text><polygon fill="#000000" points="152.5,166.7109,162.5,170.7109,152.5,174.7109,156.5,170.7109" style="stroke:#000000;stroke-width:1.0;"/><line style="stroke:#000000;stroke-width:1.0;" x1="66.5" x2="158.5" y1="170.7109" y2="170.7109"/><text fill="#333333" font-family="Verdana" font-size="11" font-weight="bold" lengthAdjust="spacing" textLength="20" x="73.5" y="166.1167">1.1</text><text fill="#333333" font-family="Verdana" font-size="11" lengthAdjust="spacing" textLength="47" x="97.5" y="166.1167">copy file</text><polygon fill="#000000" points="77.5,193.5156,67.5,197.5156,77.5,201.5156,73.5,197.5156" style="stroke:#000000;stroke-width:1.0;"/><line style="stroke:#000000;stroke-width:1.0;stroke-dasharray:2.0,2.0;" x1="71.5" x2="168.5" y1="197.5156" y2="197.5156"/><text fill="#333333" font-family="Verdana" font-size="11" font-weight="bold" lengthAdjust="spacing" textLength="20" x="83.5" y="192.9214">1.2</text><text fill="#333333" font-family="Verdana" font-size="11" lengthAdjust="spacing" textLength="4" x="107.5" y="192.9214">&#160;</text><polygon fill="#000000" points="397.5,220.3203,407.5,224.3203,397.5,228.3203,401.5,224.3203" style="stroke:#000000;stroke-width:1.0;"/><line style="stroke:#000000;stroke-width:1.0;" x1="66.5" x2="403.5" y1="224.3203" y2="224.3203"/><text fill="#333333" font-family="Verdana" font-size="11" font-weight="bold" lengthAdjust="spacing" textLength="20" x="73.5" y="219.7261">1.3</text><text fill="#333333" font-family="Verdana" font-size="11" lengthAdjust="spacing" textLength="300" x="97.5" y="219.7261">FileService.uploadFileFromFs(userId, newFileFromFs)</text><polygon fill="#000000" points="77.5,247.125,67.5,251.125,77.5,255.125,73.5,251.125" style="stroke:#000000;stroke-width:1.0;"/><line style="stroke:#000000;stroke-width:1.0;stroke-dasharray:2.0,2.0;" x1="71.5" x2="413.5" y1="251.125" y2="251.125"/><text fill="#333333" font-family="Verdana" font-size="11" font-weight="bold" lengthAdjust="spacing" textLength="20" x="83.5" y="246.5308">1.4</text><text fill="#333333" font-family="Verdana" font-size="11" lengthAdjust="spacing" textLength="4" x="107.5" y="246.5308">&#160;</text><polygon fill="#000000" points="185.5,273.9297,175.5,277.9297,185.5,281.9297,181.5,277.9297" style="stroke:#000000;stroke-width:1.0;"/><line style="stroke:#000000;stroke-width:1.0;" x1="179.5" x2="413.5" y1="277.9297" y2="277.9297"/><text fill="#333333" font-family="Verdana" font-size="11" font-weight="bold" lengthAdjust="spacing" textLength="20" x="191.5" y="273.3354">1.5</text><text fill="#333333" font-family="Verdana" font-size="11" lengthAdjust="spacing" textLength="47" x="215.5" y="273.3354">copy file</text><polygon fill="#000000" points="402.5,300.7344,412.5,304.7344,402.5,308.7344,406.5,304.7344" style="stroke:#000000;stroke-width:1.0;"/><line style="stroke:#000000;stroke-width:1.0;stroke-dasharray:2.0,2.0;" x1="169.5" x2="408.5" y1="304.7344" y2="304.7344"/><text fill="#333333" font-family="Verdana" font-size="11" font-weight="bold" lengthAdjust="spacing" textLength="20" x="176.5" y="300.1401">1.6</text><text fill="#333333" font-family="Verdana" font-size="11" lengthAdjust="spacing" textLength="4" x="200.5" y="300.1401">&#160;</text><polygon fill="#000000" points="430.5,327.5391,420.5,331.5391,430.5,335.5391,426.5,331.5391" style="stroke:#000000;stroke-width:1.0;"/><line style="stroke:#000000;stroke-width:1.0;" x1="424.5" x2="569.5" y1="331.5391" y2="331.5391"/><text fill="#333333" font-family="Verdana" font-size="11" font-weight="bold" lengthAdjust="spacing" textLength="20" x="436.5" y="326.9448">1.7</text><text fill="#333333" font-family="Verdana" font-size="11" lengthAdjust="spacing" textLength="108" x="460.5" y="326.9448">HTTP download file</text><polygon fill="#000000" points="558.5,354.3438,568.5,358.3438,558.5,362.3438,562.5,358.3438" style="stroke:#000000;stroke-width:1.0;"/><line style="stroke:#000000;stroke-width:1.0;stroke-dasharray:2.0,2.0;" x1="414.5" x2="564.5" y1="358.3438" y2="358.3438"/><text fill="#333333" font-family="Verdana" font-size="11" font-weight="bold" lengthAdjust="spacing" textLength="20" x="421.5" y="353.7495">1.8</text><text fill="#333333" font-family="Verdana" font-size="11" lengthAdjust="spacing" textLength="4" x="445.5" y="353.7495">&#160;</text><text fill="#000000" font-family="sans-serif" font-size="11" lengthAdjust="spacing" textLength="4" x="278" y="390.5542">&#160;</text><text fill="#000000" font-family="sans-serif" font-size="11" font-weight="bold" lengthAdjust="spacing" textLength="73" x="282" y="390.5542">Upload File</text><polygon fill="#000000" points="430.5,421.9531,420.5,425.9531,430.5,429.9531,426.5,425.9531" style="stroke:#000000;stroke-width:1.0;"/><line style="stroke:#000000;stroke-width:1.0;" x1="424.5" x2="569.5" y1="425.9531" y2="425.9531"/><text fill="#333333" font-family="Verdana" font-size="11" font-weight="bold" lengthAdjust="spacing" textLength="20" x="436.5" y="421.3589">1.1</text><text fill="#333333" font-family="Verdana" font-size="11" lengthAdjust="spacing" textLength="81" x="460.5" y="421.3589">tus upload file</text><polygon fill="#000000" points="558.5,448.7578,568.5,452.7578,558.5,456.7578,562.5,452.7578" style="stroke:#000000;stroke-width:1.0;"/><line style="stroke:#000000;stroke-width:1.0;stroke-dasharray:2.0,2.0;" x1="414.5" x2="564.5" y1="452.7578" y2="452.7578"/><text fill="#333333" font-family="Verdana" font-size="11" font-weight="bold" lengthAdjust="spacing" textLength="20" x="421.5" y="448.1636">1.2</text><text fill="#333333" font-family="Verdana" font-size="11" lengthAdjust="spacing" textLength="4" x="445.5" y="448.1636">&#160;</text><polygon fill="#000000" points="397.5,475.5625,407.5,479.5625,397.5,483.5625,401.5,479.5625" style="stroke:#000000;stroke-width:1.0;"/><line style="stroke:#000000;stroke-width:1.0;" x1="66.5" x2="403.5" y1="479.5625" y2="479.5625"/><text fill="#333333" font-family="Verdana" font-size="11" font-weight="bold" lengthAdjust="spacing" textLength="20" x="73.5" y="474.9683">1.3</text><text fill="#333333" font-family="Verdana" font-size="11" lengthAdjust="spacing" textLength="270" x="97.5" y="474.9683">FileService.downloadFileFromFs(path, filename)</text><polygon fill="#000000" points="77.5,502.3672,67.5,506.3672,77.5,510.3672,73.5,506.3672" style="stroke:#000000;stroke-width:1.0;"/><line style="stroke:#000000;stroke-width:1.0;stroke-dasharray:2.0,2.0;" x1="71.5" x2="413.5" y1="506.3672" y2="506.3672"/><text fill="#333333" font-family="Verdana" font-size="11" font-weight="bold" lengthAdjust="spacing" textLength="20" x="83.5" y="501.7729">1.4</text><text fill="#333333" font-family="Verdana" font-size="11" lengthAdjust="spacing" textLength="4" x="107.5" y="501.7729">&#160;</text><polygon fill="#000000" points="185.5,529.1719,175.5,533.1719,185.5,537.1719,181.5,533.1719" style="stroke:#000000;stroke-width:1.0;"/><line style="stroke:#000000;stroke-width:1.0;" x1="179.5" x2="413.5" y1="533.1719" y2="533.1719"/><text fill="#333333" font-family="Verdana" font-size="11" font-weight="bold" lengthAdjust="spacing" textLength="20" x="191.5" y="528.5776">1.5</text><text fill="#333333" font-family="Verdana" font-size="11" lengthAdjust="spacing" textLength="47" x="215.5" y="528.5776">copy file</text><polygon fill="#000000" points="402.5,555.9766,412.5,559.9766,402.5,563.9766,406.5,559.9766" style="stroke:#000000;stroke-width:1.0;"/><line style="stroke:#000000;stroke-width:1.0;stroke-dasharray:2.0,2.0;" x1="169.5" x2="408.5" y1="559.9766" y2="559.9766"/><text fill="#333333" font-family="Verdana" font-size="11" font-weight="bold" lengthAdjust="spacing" textLength="20" x="176.5" y="555.3823">1.6</text><text fill="#333333" font-family="Verdana" font-size="11" lengthAdjust="spacing" textLength="4" x="200.5" y="555.3823">&#160;</text><polygon fill="#000000" points="152.5,582.7813,162.5,586.7813,152.5,590.7813,156.5,586.7813" style="stroke:#000000;stroke-width:1.0;"/><line style="stroke:#000000;stroke-width:1.0;" x1="66.5" x2="158.5" y1="586.7813" y2="586.7813"/><text fill="#333333" font-family="Verdana" font-size="11" font-weight="bold" lengthAdjust="spacing" textLength="20" x="73.5" y="582.187">1.7</text><text fill="#333333" font-family="Verdana" font-size="11" lengthAdjust="spacing" textLength="47" x="97.5" y="582.187">copy file</text><polygon fill="#000000" points="77.5,609.5859,67.5,613.5859,77.5,617.5859,73.5,613.5859" style="stroke:#000000;stroke-width:1.0;"/><line style="stroke:#000000;stroke-width:1.0;stroke-dasharray:2.0,2.0;" x1="71.5" x2="168.5" y1="613.5859" y2="613.5859"/><text fill="#333333" font-family="Verdana" font-size="11" font-weight="bold" lengthAdjust="spacing" textLength="20" x="83.5" y="608.9917">1.8</text><text fill="#333333" font-family="Verdana" font-size="11" lengthAdjust="spacing" textLength="4" x="107.5" y="608.9917">&#160;</text><!--SRC=[lL9TIyD047o_Nx7sHOKsqDSY1QqMVH04wm_ONBRDqSlTSH-D_ditIKDghQWWleJipkpCPCXPBAaYy5GKdaAOQBKfe_LeDYH4s2hZq6C5EShjnjjaYeNLraDaHc28J1JdCF1OmraJw96rS4Ctf6rzxRsj-IAnObHH4zozoh9nWANI562di7rxBbbG25QAIYg79i9eaKAq5LmxfvN4gAmP0GP0vqI14NCC1AFc6Dhh5bpp-56b8v3VaUyOuGI-q8e_fyEb45cMmLK-lxMrqHQBDY7mKWXCqPfKvUHXcarvTWucyzPs1jAwjou1ogXs6AcRHFE42VFQx7I4zXfXrbN1MPMaBBd6kzailQsMuI85yW_560pLm_Rom2kmKpZfiqT-7fGlFkLSopxc_Mhr14NVpf7Ga8AhF0gnB_R5VLFhO1LJWAw9t_XyKMaV-Q1KXx4Sjz86A_h7Dl_Yp-7ktW40]--></g></svg>