<?xml version="1.0" encoding="us-ascii" standalone="no"?><svg xmlns="http://www.w3.org/2000/svg" xmlns:xlink="http://www.w3.org/1999/xlink" contentStyleType="text/css" height="559px" preserveAspectRatio="none" style="width:324px;height:559px;" version="1.1" viewBox="0 0 324 559" width="324px" zoomAndPan="magnify"><defs/><g><rect fill="#E0E0E0" height="26.8047" style="stroke:#FF8800;stroke-width:1.0;" width="10" x="276" y="102.4141"/><rect fill="#E0E0E0" height="26.8047" style="stroke:#FF8800;stroke-width:1.0;" width="10" x="276" y="196.8281"/><rect fill="#E0E0E0" height="26.8047" style="stroke:#FF8800;stroke-width:1.0;" width="10" x="276" y="291.2422"/><rect fill="#E0E0E0" height="14" style="stroke:#FF8800;stroke-width:1.0;" width="10" x="276" y="385.6563"/><rect fill="#E0E0E0" height="14" style="stroke:#FF8800;stroke-width:1.0;" width="10" x="276" y="467.2656"/><line style="stroke:#FF8800;stroke-width:0.5;stroke-dasharray:5.0,5.0;" x1="62" x2="62" y1="32.8047" y2="42.8047"/><line style="stroke:#FF8800;stroke-width:1.0;stroke-dasharray:1.0,4.0;" x1="62" x2="62" y1="42.8047" y2="83.6094"/><line style="stroke:#FF8800;stroke-width:0.5;stroke-dasharray:5.0,5.0;" x1="62" x2="62" y1="83.6094" y2="137.2188"/><line style="stroke:#FF8800;stroke-width:1.0;stroke-dasharray:1.0,4.0;" x1="62" x2="62" y1="137.2188" y2="178.0234"/><line style="stroke:#FF8800;stroke-width:0.5;stroke-dasharray:5.0,5.0;" x1="62" x2="62" y1="178.0234" y2="231.6328"/><line style="stroke:#FF8800;stroke-width:1.0;stroke-dasharray:1.0,4.0;" x1="62" x2="62" y1="231.6328" y2="272.4375"/><line style="stroke:#FF8800;stroke-width:0.5;stroke-dasharray:5.0,5.0;" x1="62" x2="62" y1="272.4375" y2="326.0469"/><line style="stroke:#FF8800;stroke-width:1.0;stroke-dasharray:1.0,4.0;" x1="62" x2="62" y1="326.0469" y2="366.8516"/><line style="stroke:#FF8800;stroke-width:0.5;stroke-dasharray:5.0,5.0;" x1="62" x2="62" y1="366.8516" y2="407.6563"/><line style="stroke:#FF8800;stroke-width:1.0;stroke-dasharray:1.0,4.0;" x1="62" x2="62" y1="407.6563" y2="448.4609"/><line style="stroke:#FF8800;stroke-width:0.5;stroke-dasharray:5.0,5.0;" x1="62" x2="62" y1="448.4609" y2="489.2656"/><line style="stroke:#FF8800;stroke-width:1.0;stroke-dasharray:1.0,4.0;" x1="62" x2="62" y1="489.2656" y2="517.2656"/><line style="stroke:#FF8800;stroke-width:0.5;stroke-dasharray:5.0,5.0;" x1="62" x2="62" y1="517.2656" y2="527.2656"/><line style="stroke:#FF8800;stroke-width:0.5;stroke-dasharray:5.0,5.0;" x1="280.5" x2="280.5" y1="32.8047" y2="42.8047"/><line style="stroke:#FF8800;stroke-width:1.0;stroke-dasharray:1.0,4.0;" x1="280.5" x2="280.5" y1="42.8047" y2="83.6094"/><line style="stroke:#FF8800;stroke-width:0.5;stroke-dasharray:5.0,5.0;" x1="280.5" x2="280.5" y1="83.6094" y2="137.2188"/><line style="stroke:#FF8800;stroke-width:1.0;stroke-dasharray:1.0,4.0;" x1="280.5" x2="280.5" y1="137.2188" y2="178.0234"/><line style="stroke:#FF8800;stroke-width:0.5;stroke-dasharray:5.0,5.0;" x1="280.5" x2="280.5" y1="178.0234" y2="231.6328"/><line style="stroke:#FF8800;stroke-width:1.0;stroke-dasharray:1.0,4.0;" x1="280.5" x2="280.5" y1="231.6328" y2="272.4375"/><line style="stroke:#FF8800;stroke-width:0.5;stroke-dasharray:5.0,5.0;" x1="280.5" x2="280.5" y1="272.4375" y2="326.0469"/><line style="stroke:#FF8800;stroke-width:1.0;stroke-dasharray:1.0,4.0;" x1="280.5" x2="280.5" y1="326.0469" y2="366.8516"/><line style="stroke:#FF8800;stroke-width:0.5;stroke-dasharray:5.0,5.0;" x1="280.5" x2="280.5" y1="366.8516" y2="407.6563"/><line style="stroke:#FF8800;stroke-width:1.0;stroke-dasharray:1.0,4.0;" x1="280.5" x2="280.5" y1="407.6563" y2="448.4609"/><line style="stroke:#FF8800;stroke-width:0.5;stroke-dasharray:5.0,5.0;" x1="280.5" x2="280.5" y1="448.4609" y2="489.2656"/><line style="stroke:#FF8800;stroke-width:1.0;stroke-dasharray:1.0,4.0;" x1="280.5" x2="280.5" y1="489.2656" y2="517.2656"/><line style="stroke:#FF8800;stroke-width:0.5;stroke-dasharray:5.0,5.0;" x1="280.5" x2="280.5" y1="517.2656" y2="527.2656"/><rect fill="#CCCCCC" height="26.8047" rx="2.5" ry="2.5" style="stroke:#AAAAAA;stroke-width:0.5;" width="114" x="5" y="5"/><text fill="#000000" font-family="Verdana" font-size="11" lengthAdjust="spacing" textLength="100" x="12" y="22.2104">SOAP/REST Client</text><rect fill="#CCCCCC" height="26.8047" rx="2.5" ry="2.5" style="stroke:#AAAAAA;stroke-width:0.5;" width="114" x="5" y="526.2656"/><text fill="#000000" font-family="Verdana" font-size="11" lengthAdjust="spacing" textLength="100" x="12" y="543.4761">SOAP/REST Client</text><rect fill="#CCCCCC" height="26.8047" rx="2.5" ry="2.5" style="stroke:#AAAAAA;stroke-width:0.5;" width="75" x="243.5" y="5"/><text fill="#000000" font-family="Verdana" font-size="11" lengthAdjust="spacing" textLength="61" x="250.5" y="22.2104">File Server</text><rect fill="#CCCCCC" height="26.8047" rx="2.5" ry="2.5" style="stroke:#AAAAAA;stroke-width:0.5;" width="75" x="243.5" y="526.2656"/><text fill="#000000" font-family="Verdana" font-size="11" lengthAdjust="spacing" textLength="61" x="250.5" y="543.4761">File Server</text><rect fill="#E0E0E0" height="26.8047" style="stroke:#FF8800;stroke-width:1.0;" width="10" x="276" y="102.4141"/><rect fill="#E0E0E0" height="26.8047" style="stroke:#FF8800;stroke-width:1.0;" width="10" x="276" y="196.8281"/><rect fill="#E0E0E0" height="26.8047" style="stroke:#FF8800;stroke-width:1.0;" width="10" x="276" y="291.2422"/><rect fill="#E0E0E0" height="14" style="stroke:#FF8800;stroke-width:1.0;" width="10" x="276" y="385.6563"/><rect fill="#E0E0E0" height="14" style="stroke:#FF8800;stroke-width:1.0;" width="10" x="276" y="467.2656"/><text fill="#000000" font-family="sans-serif" font-size="11" lengthAdjust="spacing" textLength="4" x="126.5" y="67.0151">&#160;</text><text fill="#000000" font-family="sans-serif" font-size="11" font-weight="bold" lengthAdjust="spacing" textLength="82" x="130.5" y="67.0151">Get All Users</text><polygon fill="#000000" points="264,98.4141,274,102.4141,264,106.4141,268,102.4141" style="stroke:#000000;stroke-width:1.0;"/><line style="stroke:#000000;stroke-width:1.0;" x1="62" x2="270" y1="102.4141" y2="102.4141"/><text fill="#333333" font-family="Verdana" font-size="11" lengthAdjust="spacing" textLength="133" x="69" y="97.8198">UserService.getUsers()</text><polygon fill="#000000" points="73,125.2188,63,129.2188,73,133.2188,69,129.2188" style="stroke:#000000;stroke-width:1.0;"/><line style="stroke:#000000;stroke-width:1.0;stroke-dasharray:2.0,2.0;" x1="67" x2="280" y1="129.2188" y2="129.2188"/><text fill="#333333" font-family="Verdana" font-size="11" lengthAdjust="spacing" textLength="66" x="79" y="124.6245">&lt;UserInfo&gt;</text><text fill="#000000" font-family="sans-serif" font-size="11" lengthAdjust="spacing" textLength="4" x="124.5" y="161.4292">&#160;</text><text fill="#000000" font-family="sans-serif" font-size="11" font-weight="bold" lengthAdjust="spacing" textLength="86" x="128.5" y="161.4292">Register User</text><polygon fill="#000000" points="264,192.8281,274,196.8281,264,200.8281,268,196.8281" style="stroke:#000000;stroke-width:1.0;"/><line style="stroke:#000000;stroke-width:1.0;" x1="62" x2="270" y1="196.8281" y2="196.8281"/><text fill="#333333" font-family="Verdana" font-size="11" lengthAdjust="spacing" textLength="195" x="69" y="192.2339">UserService.createUser(NewUser)</text><polygon fill="#000000" points="73,219.6328,63,223.6328,73,227.6328,69,223.6328" style="stroke:#000000;stroke-width:1.0;"/><line style="stroke:#000000;stroke-width:1.0;stroke-dasharray:2.0,2.0;" x1="67" x2="280" y1="223.6328" y2="223.6328"/><text fill="#333333" font-family="Verdana" font-size="11" lengthAdjust="spacing" textLength="54" x="79" y="219.0386">&lt;userId&gt;</text><text fill="#000000" font-family="sans-serif" font-size="11" lengthAdjust="spacing" textLength="4" x="140" y="255.8433">&#160;</text><text fill="#000000" font-family="sans-serif" font-size="11" font-weight="bold" lengthAdjust="spacing" textLength="55" x="144" y="255.8433">Get User</text><polygon fill="#000000" points="264,287.2422,274,291.2422,264,295.2422,268,291.2422" style="stroke:#000000;stroke-width:1.0;"/><line style="stroke:#000000;stroke-width:1.0;" x1="62" x2="270" y1="291.2422" y2="291.2422"/><text fill="#333333" font-family="Verdana" font-size="11" lengthAdjust="spacing" textLength="162" x="69" y="286.6479">UserService.getUser(userId)</text><polygon fill="#000000" points="73,314.0469,63,318.0469,73,322.0469,69,318.0469" style="stroke:#000000;stroke-width:1.0;"/><line style="stroke:#000000;stroke-width:1.0;stroke-dasharray:2.0,2.0;" x1="67" x2="280" y1="318.0469" y2="318.0469"/><text fill="#333333" font-family="Verdana" font-size="11" lengthAdjust="spacing" textLength="66" x="79" y="313.4526">&lt;UserInfo&gt;</text><text fill="#000000" font-family="sans-serif" font-size="11" lengthAdjust="spacing" textLength="4" x="128" y="350.2573">&#160;</text><text fill="#000000" font-family="sans-serif" font-size="11" font-weight="bold" lengthAdjust="spacing" textLength="79" x="132" y="350.2573">Update User</text><polygon fill="#000000" points="264,381.6563,274,385.6563,264,389.6563,268,385.6563" style="stroke:#000000;stroke-width:1.0;"/><line style="stroke:#000000;stroke-width:1.0;" x1="62" x2="270" y1="385.6563" y2="385.6563"/><text fill="#333333" font-family="Verdana" font-size="11" lengthAdjust="spacing" textLength="195" x="69" y="381.062">UserService.updateUser(UserInfo)</text><polygon fill="#000000" points="73,395.6563,63,399.6563,73,403.6563,69,399.6563" style="stroke:#000000;stroke-width:1.0;"/><line style="stroke:#000000;stroke-width:1.0;stroke-dasharray:2.0,2.0;" x1="67" x2="280" y1="399.6563" y2="399.6563"/><text fill="#000000" font-family="sans-serif" font-size="11" lengthAdjust="spacing" textLength="4" x="130" y="431.8667">&#160;</text><text fill="#000000" font-family="sans-serif" font-size="11" font-weight="bold" lengthAdjust="spacing" textLength="75" x="134" y="431.8667">Delete User</text><polygon fill="#000000" points="264,463.2656,274,467.2656,264,471.2656,268,467.2656" style="stroke:#000000;stroke-width:1.0;"/><line style="stroke:#000000;stroke-width:1.0;" x1="62" x2="270" y1="467.2656" y2="467.2656"/><text fill="#333333" font-family="Verdana" font-size="11" lengthAdjust="spacing" textLength="179" x="69" y="462.6714">UserService.deleteUser(userId)</text><polygon fill="#000000" points="73,477.2656,63,481.2656,73,485.2656,69,481.2656" style="stroke:#000000;stroke-width:1.0;"/><line style="stroke:#000000;stroke-width:1.0;stroke-dasharray:2.0,2.0;" x1="67" x2="280" y1="481.2656" y2="481.2656"/><!--SRC=[fO_TQW8n48NlynHJRxGNRkz55gpzeHUsHUi3nCsu1cEoJ6RrzJj9BKNegk1LOFATyt7kU8Cx149Z26CSEbjlE93sDIeLjzOtclGELhhQrXHQRwR11G8M8ieNUbPz-EEaema-uaowT8sFwC9XGXGEacYbiGzisI7Cj9TlM4OafIJAjhADzWoznSVays7-lFY2gRDItmCTGJVDAVLYfMI1j4VAm3egLHG5Z5VbAp9CdClT4UIebCHXM0eqojUKinKMDNA61lTALsptcZ4NhICC1PVK2CQ9UFFhK2g39zHHDyVQHaRApMTr5Q5aqsNmZeVqdlEsoMkwh6daHU5nt-2dwfQHoyQaoqLZcxai_Qtir7Qedj3XDIgJkMls_IFw1W00]--></g></svg>